<?xml version="1.0" standalone="no"?>
<!DOCTYPE svg PUBLIC "-//W3C//DTD SVG 20010904//EN" "http://www.w3.org/TR/2001/REC-SVG-20010904/DTD/svg10.dtd">
<svg xmlns="http://www.w3.org/2000/svg" version="1.0" width="1200" height="1200" viewBox="0 0 1200.000000 1200.000000" preserveAspectRatio="xMidYMid meet">

<g transform="translate(0.000000,1200.000000) scale(0.100000,-0.100000)" fill="#000000" stroke="none">
<path d="M4937 10396 c-285 -167 -522 -308 -527 -312 -4 -5 -10 -211 -13 -458 -3 -246 -9 -451 -14 -456 -4 -4 -235 -139 -513 -300 -278 -161 -510 -298 -517 -304 -17 -16 -27 -2728 -10 -2750 10 -12 891 -525 1892 -1101 127 -72 470 -270 763 -440 293 -169 538 -308 545 -309 7 0 252 138 545 308 l532 310 1 350 c1 408 4 554 10 559 2 2 239 141 527 308 l522 304 0 430 c0 236 1 850 3 1364 3 832 1 936 -12 953 -15 17 -329 201 -1576 920 -1398 807 -1598 921 -1618 924 -15 3 -200 -101 -540 -300z m1118 -71 c270 -156 722 -417 1005 -580 283 -164 757 -437 1053 -607 l537 -311 -1 -1333 c-1 -832 -5 -1334 -11 -1334 -5 0 -236 132 -514 292 l-504 293 0 452 0 453 -37 23 c-21 13 -260 151 -530 307 l-493 283 0 453 0 454 -77 45 c-43 24 -283 163 -533 308 l-455 263 -3 433 -2 433 37 -22 c21 -12 259 -150 528 -305z m-607 -112 l-3 -427 -75 -44 c-41 -25 -142 -84 -225 -132 -82 -48 -275 -160 -428 -248 -153 -89 -280 -162 -282 -162 -3 0 -5 191 -5 424 l0 425 28 19 c15 10 162 97 327 192 165 96 379 220 475 276 96 56 178 103 183 103 4 1 6 -191 5 -426z m447 -705 c220 -127 444 -256 497 -287 54 -31 98 -58 98 -61 0 -3 -227 -137 -505 -298 l-504 -292 -489 282 c-269 156 -499 290 -511 298 -21 14 0 28 481 307 292 170 509 290 518 287 8 -3 195 -109 415 -236z m-870 -725 c215 -124 394 -229 398 -233 9 -8 -15 -22 -622 -375 -312 -181 -378 -216 -397 -209 -58 23 -1003 579 -996 586 4 4 232 138 505 297 l498 289 112 -65 c62 -36 288 -167 502 -290z m1492 -90 c-4 -234 -10 -429 -14 -433 -8 -7 -937 -546 -980 -569 l-23 -12 0 428 0 428 503 292 c276 161 506 292 511 292 5 1 6 -181 3 -426z m-2631 -477 l509 -294 5 -457 5 -457 165 -96 c91 -53 327 -189 525 -303 l360 -207 3 -454 2 -455 535 -308 535 -309 0 -434 0 -434 -32 20 c-33 19 -457 264 -1103 635 -501 288 -926 533 -1502 867 l-523 303 0 1339 c0 736 2 1338 4 1338 2 0 232 -132 512 -294z m1574 -135 l0 -428 -477 -278 c-263 -153 -493 -287 -510 -297 l-33 -20 0 430 0 431 508 295 c279 163 508 296 510 296 1 0 2 -193 2 -429z m1586 -143 c277 -161 503 -295 502 -300 -2 -4 -228 -138 -503 -298 -416 -243 -503 -290 -520 -282 -11 6 -242 138 -514 296 l-494 285 39 23 c214 128 971 567 977 567 4 1 235 -130 513 -291z m-1049 -623 c276 -159 499 -293 495 -297 -14 -13 -997 -581 -1007 -581 -10 0 -119 62 -723 411 -286 165 -303 176 -280 188 12 7 239 139 503 293 264 154 487 279 495 278 9 -1 241 -132 517 -292z m1583 -143 l0 -428 -494 -287 c-272 -158 -502 -290 -511 -293 -15 -6 -16 30 -14 413 0 231 4 426 8 432 6 10 998 591 1008 591 2 0 3 -193 3 -428z m-1062 -618 l-3 -427 -470 -274 c-258 -151 -487 -283 -508 -294 l-39 -20 3 388 c2 213 6 408 9 432 l5 44 495 288 c272 158 498 288 503 288 4 1 6 -191 5 -425z m1597 -144 c264 -152 488 -281 498 -286 14 -8 -81 -67 -488 -303 -351 -204 -511 -291 -523 -286 -57 21 -1011 580 -1003 588 4 4 231 138 502 296 415 242 497 286 514 278 11 -6 236 -135 500 -287z m-1058 -615 c276 -159 502 -292 502 -295 0 -3 -227 -137 -505 -298 l-505 -293 -488 283 c-269 156 -498 290 -510 298 -21 14 0 28 481 307 277 161 508 292 513 290 6 -1 236 -132 512 -292z m533 -758 l-1 -433 -504 -292 c-278 -161 -507 -292 -510 -292 -3 0 -5 193 -5 429 l0 428 508 295 c279 163 508 296 510 297 1 1 2 -194 2 -432z"/>
<path d="M4525 3141 l-60 -6 -3 -332 -2 -333 35 0 35 0 0 150 0 151 66 -3 66 -3 77 -147 76 -148 43 0 c23 0 42 2 42 3 0 2 -39 75 -86 162 l-86 157 28 24 c16 13 32 23 35 24 3 0 16 18 28 41 19 34 23 52 19 105 -3 54 -8 69 -33 95 -17 17 -44 37 -61 45 -39 17 -140 24 -219 15z m202 -94 c32 -30 36 -40 36 -80 0 -87 -52 -127 -168 -127 l-65 0 0 120 0 120 80 0 c77 0 82 -1 117 -33z"/>
<path d="M5942 3140 c-103 -22 -161 -96 -147 -189 10 -66 65 -116 184 -167 51 -21 107 -51 126 -66 61 -51 55 -119 -15 -166 -31 -21 -43 -23 -110 -19 -41 2 -87 10 -102 17 -25 12 -28 18 -28 67 0 52 0 53 -30 53 l-30 0 0 -79 0 -79 38 -15 c217 -87 417 6 389 179 -11 65 -48 99 -182 164 -134 66 -165 93 -165 146 0 61 52 94 148 94 96 0 102 -4 102 -66 l0 -54 35 0 35 0 0 80 0 79 -37 10 c-58 16 -163 21 -211 11z"/>
<path d="M3765 2805 l-1 -335 38 0 38 0 0 150 0 150 39 0 c39 0 41 -2 157 -150 l118 -150 43 0 c24 0 43 3 43 6 0 4 -68 94 -231 305 l-28 36 114 156 c63 86 115 159 115 162 0 3 -18 5 -39 5 -39 0 -39 -1 -146 -150 -107 -149 -108 -150 -146 -150 l-39 0 0 150 0 150 -38 0 -37 0 0 -335z"/>
<path d="M5090 3105 l0 -35 95 0 95 0 0 -265 0 -265 -95 0 -95 0 0 -35 0 -35 228 2 227 3 1 33 0 32 -98 0 -98 0 0 265 0 264 98 3 97 3 1 33 0 32 -228 0 -228 0 0 -35z"/>
<path d="M6450 2805 l0 -335 35 0 35 0 0 155 0 155 155 0 155 0 0 -156 0 -155 38 3 37 3 0 333 1 332 -38 0 -38 0 0 -145 0 -145 -155 0 -155 0 0 145 0 145 -35 0 -35 0 0 -335z"/>
<path d="M7130 2805 l0 -335 36 0 36 0 -4 260 c-1 143 -2 260 -1 260 2 0 16 -26 33 -57 16 -32 87 -148 158 -258 109 -169 133 -200 156 -203 l26 -3 0 335 0 336 -36 0 -35 0 3 -255 c2 -140 0 -255 -3 -255 -3 0 -13 17 -23 37 -10 21 -81 135 -159 255 -116 179 -145 218 -164 218 l-23 0 0 -335z"/>
<path d="M7875 2818 c-59 -178 -110 -329 -113 -336 -3 -10 5 -13 34 -10 l38 3 28 93 29 92 134 0 133 0 32 -95 32 -95 38 0 38 0 -113 333 -113 332 -44 3 -44 3 -109 -323z m208 73 c26 -81 47 -151 47 -155 0 -3 -48 -6 -106 -6 -105 0 -105 0 -98 23 38 124 87 273 91 280 12 20 23 -4 66 -142z"/>
</g>
</svg>